<svg xmlns="http://www.w3.org/2000/svg" width="24" height="24" viewBox="0 0 24 24">
  <g id="Grupo_4787" data-name="Grupo 4787" transform="translate(-315 -120)">
    <g id="Grupo_4762" data-name="Grupo 4762">
      <circle id="Elipse_190" data-name="Elipse 190" cx="12" cy="12" r="12" transform="translate(315 120)" fill="#919191"/>
    </g>
    <g id="Grupo_4781" data-name="Grupo 4781" transform="translate(-30 -883)">
      <g id="outline-touch_app-24px" transform="translate(351 1007.75)">
        <g id="Outline">
          <g id="Grupo_119" data-name="Grupo 119">
            <path id="Trazado_2524" data-name="Trazado 2524" d="M14.573,11.58l-2.43-1.215a4.087,4.087,0,0,0,1.59-3.24,4.125,4.125,0,1,0-6,3.667v2.445l-1.38-.292-.075-.015a1.187,1.187,0,0,0-.24-.023,1.487,1.487,0,0,0-1.057.443L3.93,14.415l3.818,3.818a1.736,1.736,0,0,0,1.238.517H13.71A1.491,1.491,0,0,0,15.188,17.5l.6-3.533A2.244,2.244,0,0,0,14.573,11.58Zm-.262,2.138-.6,3.532H8.985a.277.277,0,0,1-.18-.075l-2.76-2.76,3.188.668V7.125a.375.375,0,0,1,.75,0v4.5H11.3l2.6,1.3A.755.755,0,0,1,14.31,13.718ZM6.983,7.125a2.625,2.625,0,0,1,5.25,0,2.6,2.6,0,0,1-.75,1.83V7.125a1.875,1.875,0,0,0-3.75,0v1.83A2.6,2.6,0,0,1,6.983,7.125Z" transform="translate(-3.93 -3)" fill="#fff"/>
          </g>
        </g>
      </g>
      <rect id="Rectángulo_67" data-name="Rectángulo 67" width="18" height="18" transform="translate(348 1007)" fill="none"/>
    </g>
  </g>
</svg>
