<svg xmlns="http://www.w3.org/2000/svg" width="24" height="24" viewBox="0 0 24 24">
  <g id="Grupo_4783" data-name="Grupo 4783" transform="translate(-868 -120)">
    <g id="Grupo_4765" data-name="Grupo 4765" transform="translate(553)">
      <circle id="Elipse_190" data-name="Elipse 190" cx="12" cy="12" r="12" transform="translate(315 120)" fill="#919191"/>
    </g>
    <g id="outline-view_agenda-24px" transform="translate(871 123)">
      <g id="Bounding_Boxes">
        <path id="Trazado_2530" data-name="Trazado 2530" d="M0,0H18V18H0Z" fill="none"/>
      </g>
      <g id="Outline" transform="translate(1.5 2.25)">
        <path id="Trazado_2531" data-name="Trazado 2531" d="M14.75,4.5v3H3.5v-3H14.75m0,7.5v3H3.5V12H14.75m.75-9H2.75A.752.752,0,0,0,2,3.75v4.5A.752.752,0,0,0,2.75,9H15.5a.752.752,0,0,0,.75-.75V3.75A.752.752,0,0,0,15.5,3Zm0,7.5H2.75a.752.752,0,0,0-.75.75v4.5a.752.752,0,0,0,.75.75H15.5a.752.752,0,0,0,.75-.75v-4.5a.752.752,0,0,0-.75-.75Z" transform="translate(-2 -3)" fill="#fff"/>
      </g>
    </g>
  </g>
</svg>
