<svg xmlns="http://www.w3.org/2000/svg" width="24" height="24" viewBox="0 0 24 24">
  <g id="Grupo_4763" data-name="Grupo 4763" transform="translate(-315 -120)">
    <circle id="Elipse_190" data-name="Elipse 190" cx="12" cy="12" r="12" transform="translate(315 120)" fill="#919191"/>
    <g id="baseline-add_shopping_cart-24px" transform="translate(318 124)">
      <path id="Trazado_128" data-name="Trazado 128" d="M0,0H18V18H0ZM13.732,4.5l-2.07,3.75Z" fill="none"/>
      <path id="Trazado_129" data-name="Trazado 129" d="M9.2,7.419h1.64V5.012H13.3v-1.6h-2.46V1H9.2V3.407H6.739v1.6H9.2ZM5.919,14.64a1.605,1.605,0,1,0,1.64,1.6A1.62,1.62,0,0,0,5.919,14.64Zm8.2,0a1.605,1.605,0,1,0,1.64,1.6A1.62,1.62,0,0,0,14.117,14.64ZM6.058,12.033l.025-.1.738-1.308h6.108A1.638,1.638,0,0,0,14.363,9.8l3.165-5.625L16.1,3.407h-.008l-.9,1.6L12.929,9.024H7.173l-.107-.217L5.23,5.012l-.779-1.6L3.681,1.8H1v1.6H2.64L5.591,9.5,4.484,11.463a1.526,1.526,0,0,0-.2.77,1.627,1.627,0,0,0,1.64,1.6h9.838v-1.6H6.263A.206.206,0,0,1,6.058,12.033Z" transform="translate(-0.617 -0.617)" fill="#fff"/>
    </g>
  </g>
</svg>
